<svg width="32" height="32" viewBox="0 0 32 32" fill="none" xmlns="http://www.w3.org/2000/svg">
<path d="M17.36 4.66699C19.76 4.66699 20.267 4.69399 21.493 4.74699C22.906 4.81399 23.88 5.03999 24.72 5.37399C25.6 5.70699 26.347 6.17399 27.08 6.90699C27.827 7.63999 28.28 8.38699 28.627 9.26699C28.96 10.107 29.174 11.08 29.24 12.507C29.307 13.774 29.32 14.267 29.32 16.934V19.067C29.32 21.734 29.307 22.227 29.24 23.494C29.217 24.659 28.994 25.764 28.604 26.788L28.626 26.721C28.279 27.601 27.826 28.348 27.093 29.081C26.346 29.828 25.6 30.281 24.72 30.628C23.88 30.961 22.907 31.175 21.493 31.241C20.226 31.308 19.72 31.321 17.053 31.321H14.933C12.266 31.321 11.773 31.308 10.493 31.241C9.32802 31.218 8.22302 30.995 7.19902 30.605L7.26602 30.627C6.34302 30.274 5.55602 29.753 4.90702 29.094L4.90602 29.093C4.24002 28.441 3.71402 27.649 3.37402 26.764L3.35902 26.719C2.99202 25.763 2.76902 24.657 2.74602 23.502V23.492C2.69302 22.45 2.66302 21.229 2.66302 20.002C2.66302 19.776 2.66402 19.55 2.66602 19.325V19.359V16.626C2.66602 14.226 2.69302 13.719 2.74602 12.493C2.81302 11.08 3.03902 10.106 3.35902 9.26599C3.70602 8.38599 4.15902 7.63899 4.90602 6.90599C5.55102 6.23899 6.34002 5.71599 7.22302 5.38699L7.26602 5.37299C8.22102 5.00199 9.32603 4.77399 10.481 4.74699H10.493C11.72 4.69399 12.226 4.66699 14.626 4.66699H17.36ZM17.387 7.06699H14.6C12.293 7.06699 11.8 7.09399 10.6 7.14699C9.30702 7.19999 8.60003 7.41399 8.13303 7.59999C7.50603 7.83999 7.06602 8.13299 6.60002 8.59999C6.13402 9.06699 5.84002 9.50699 5.60002 10.133C5.42702 10.6 5.20002 11.306 5.14702 12.613C5.09402 13.813 5.06702 14.293 5.06702 16.613V19.386C5.06702 21.706 5.09402 22.186 5.14702 23.386C5.20002 24.679 5.41402 25.386 5.60002 25.853C5.84002 26.48 6.13302 26.92 6.60002 27.386C7.06702 27.852 7.50703 28.146 8.13303 28.386C8.60003 28.573 9.30602 28.786 10.613 28.839C11.906 28.906 12.373 28.919 15.253 28.919H16.733C19.626 28.919 20.08 28.906 21.386 28.839C22.679 28.786 23.386 28.572 23.853 28.386C24.48 28.146 24.92 27.853 25.386 27.386C25.852 26.919 26.146 26.479 26.386 25.853C26.573 25.386 26.786 24.68 26.839 23.386C26.906 22.079 26.919 21.626 26.919 18.733V17.266C26.919 14.373 26.906 13.906 26.839 12.599C26.786 11.306 26.572 10.599 26.386 10.132C26.16 9.53099 25.819 9.01799 25.387 8.59999L25.386 8.59899C24.966 8.16599 24.454 7.82499 23.881 7.60799L23.853 7.59899C23.121 7.32299 22.275 7.15799 21.391 7.14599H21.386C20.358 7.09399 19.155 7.06399 17.944 7.06399C17.748 7.06399 17.552 7.06499 17.356 7.06599H17.386L17.387 7.06699ZM16 11.147C19.781 11.147 22.847 14.212 22.847 17.994C22.847 21.776 19.782 24.841 16 24.841C12.219 24.841 9.15302 21.776 9.15302 17.994C9.15302 14.212 12.218 11.147 16 11.147ZM16 13.547C13.544 13.547 11.553 15.538 11.553 17.994C11.553 20.45 13.544 22.441 16 22.441C18.456 22.441 20.447 20.45 20.447 17.994C20.447 15.538 18.456 13.547 16 13.547ZM23.107 9.27999C23.991 9.27999 24.707 9.99599 24.707 10.88C24.707 11.764 23.991 12.48 23.107 12.48C22.223 12.48 21.507 11.764 21.507 10.88C21.507 9.99599 22.223 9.27999 23.107 9.27999Z" fill="black"/>
</svg>
