<svg width="22" height="22" viewBox="0 0 22 22" fill="none" xmlns="http://www.w3.org/2000/svg">
<rect width="22" height="22" fill="#F5F5F5"/>
<g clip-path="url(#clip0_0_1)">
<rect width="1440" height="3870" transform="translate(-110 -51)" fill="white"/>
<rect width="1440" height="3870" transform="translate(-110 -51)" fill="black" fill-opacity="0.2"/>
<g filter="url(#filter0_dd_0_1)">
<rect width="1440" height="134" transform="translate(-110 -51)" fill="#EDF2EC"/>
<path d="M2.52667 20.9465L10.9212 3.66406C10.9212 3.66406 3.57596 7.00905 2.00199 10.9115C0.428017 14.814 0.927102 18.4038 2.00201 20.9465" stroke="#499A18" stroke-linecap="round" stroke-linejoin="round"/>
<path d="M1.99646 20.9925C1.99646 20.9925 27.7102 -8.60087 19.3157 4.2216C10.9212 17.0441 20.1707 6.63145 15.4973 14.0678C10.824 21.5041 1.99646 20.9925 1.99646 20.9925Z" stroke="#499A18" stroke-linejoin="round"/>
</g>
</g>
<defs>
<filter id="filter0_dd_0_1" x="-114" y="-51" width="1448" height="142" filterUnits="userSpaceOnUse" color-interpolation-filters="sRGB">
<feFlood flood-opacity="0" result="BackgroundImageFix"/>
<feColorMatrix in="SourceAlpha" type="matrix" values="0 0 0 0 0 0 0 0 0 0 0 0 0 0 0 0 0 0 127 0" result="hardAlpha"/>
<feOffset dy="4"/>
<feGaussianBlur stdDeviation="2"/>
<feComposite in2="hardAlpha" operator="out"/>
<feColorMatrix type="matrix" values="0 0 0 0 0 0 0 0 0 0 0 0 0 0 0 0 0 0 0.25 0"/>
<feBlend mode="normal" in2="BackgroundImageFix" result="effect1_dropShadow_0_1"/>
<feColorMatrix in="SourceAlpha" type="matrix" values="0 0 0 0 0 0 0 0 0 0 0 0 0 0 0 0 0 0 127 0" result="hardAlpha"/>
<feOffset dy="4"/>
<feGaussianBlur stdDeviation="2"/>
<feComposite in2="hardAlpha" operator="out"/>
<feColorMatrix type="matrix" values="0 0 0 0 0 0 0 0 0 0 0 0 0 0 0 0 0 0 0.25 0"/>
<feBlend mode="normal" in2="effect1_dropShadow_0_1" result="effect2_dropShadow_0_1"/>
<feBlend mode="normal" in="SourceGraphic" in2="effect2_dropShadow_0_1" result="shape"/>
</filter>
<clipPath id="clip0_0_1">
<rect width="1440" height="3870" fill="white" transform="translate(-110 -51)"/>
</clipPath>
</defs>
</svg>
